<svg xmlns="http://www.w3.org/2000/svg" xmlns:xlink="http://www.w3.org/1999/xlink" style="display:none">
<symbol id='icon-an' viewBox='0 0 16 16'><path d="M14 6c-0.55 0-1 0.45-1 1v4c0 0.55 0.45 1 1 1s1-0.45 1-1v-4c0-0.55-0.45-1-1-1zM2 6c-0.55 0-1 0.45-1 1v4c0 0.55 0.45 1 1 1s1-0.45 1-1v-4c0-0.55-0.45-1-1-1zM3.5 11.5c0 0.828 0.672 1.5 1.5 1.5v0 2c0 0.55 0.45 1 1 1s1-0.45 1-1v-2h2v2c0 0.55 0.45 1 1 1s1-0.45 1-1v-2c0.828 0 1.5-0.672 1.5-1.5v-5.5h-9v5.5z"></path>
<path d="M12.472 5c-0.152-1.373-0.922-2.559-2.025-3.276l0.5-1.001c0.123-0.247 0.023-0.547-0.224-0.671s-0.547-0.023-0.671 0.224l-0.502 1.004-0.13-0.052c-0.446-0.148-0.924-0.229-1.42-0.229s-0.974 0.081-1.42 0.229l-0.13 0.052-0.502-1.004c-0.123-0.247-0.424-0.347-0.671-0.224s-0.347 0.424-0.224 0.671l0.5 1.001c-1.103 0.716-1.873 1.903-2.025 3.276v0.5h8.972v-0.5h-0.028zM6.5 4c-0.276 0-0.5-0.224-0.5-0.5s0.223-0.499 0.499-0.5c0 0 0.001 0 0.001 0s0.001-0 0.001-0c0.276 0.001 0.499 0.224 0.499 0.5s-0.224 0.5-0.5 0.5zM9.5 4c-0.276 0-0.5-0.224-0.5-0.5s0.223-0.499 0.499-0.5c0 0 0.001 0 0.001 0s0.001-0 0.002-0c0.276 0.001 0.499 0.224 0.499 0.5s-0.224 0.5-0.5 0.5z"></path></symbol>
<symbol id='icon-apple' viewBox='0 0 16 16'><path d="M12.367 8.501c-0.020-2.026 1.652-2.998 1.727-3.046-0.94-1.375-2.404-1.564-2.926-1.585-1.246-0.126-2.431 0.734-3.064 0.734-0.631 0-1.607-0.715-2.64-0.696-1.358 0.020-2.61 0.79-3.31 2.006-1.411 2.448-0.361 6.076 1.014 8.061 0.672 0.972 1.473 2.064 2.525 2.025 1.013-0.040 1.396-0.656 2.621-0.656s1.569 0.656 2.641 0.635c1.090-0.020 1.781-0.991 2.448-1.966 0.772-1.128 1.089-2.219 1.108-2.275-0.024-0.011-2.126-0.816-2.147-3.236zM10.353 2.555c0.558-0.677 0.935-1.617 0.832-2.555-0.804 0.033-1.779 0.536-2.356 1.212-0.518 0.6-0.971 1.557-0.85 2.476 0.898 0.070 1.815-0.456 2.373-1.132z"></path></symbol>
<symbol id='icon-arrow-up' viewBox='0 0 16 16'><path d="M8 0.5l-7.5 7.5h4.5v8h6v-8h4.5z"></path></symbol>
<symbol id='icon-ch' viewBox='0 0 16 16'><path d="M4.036 6.977l-2.29-3.966c1.466-1.835 3.722-3.012 6.254-3.012 2.929 0 5.489 1.574 6.883 3.922h-6.528c-0.117-0.010-0.236-0.016-0.356-0.016-1.904 0-3.509 1.307-3.964 3.071zM10.864 5.078h4.585c0.355 0.905 0.551 1.891 0.551 2.922 0 4.388-3.533 7.95-7.909 7.999l3.272-5.667c0.461-0.662 0.731-1.466 0.731-2.332 0-1.143-0.471-2.178-1.23-2.922zM5.094 8c0-1.603 1.304-2.906 2.906-2.906s2.906 1.304 2.906 2.906c0 1.602-1.304 2.906-2.906 2.906s-2.906-1.304-2.906-2.906zM9.097 11.944l-2.29 3.967c-3.852-0.576-6.806-3.899-6.806-7.911 0-1.425 0.373-2.763 1.026-3.922l3.266 5.657c0.654 1.392 2.070 2.359 3.707 2.359 0.38 0 0.747-0.052 1.097-0.149z"></path></symbol>
<symbol id='icon-checkmark' viewBox='0 0 16 16'><path d="M13.5 2l-7.5 7.5-3.5-3.5-2.5 2.5 6 6 10-10z"></path></symbol>
<symbol id='icon-cross' viewBox='0 0 16 16'><path d="M15.854 12.854c-0-0-0-0-0-0l-4.854-4.854 4.854-4.854c0-0 0-0 0-0 0.052-0.052 0.090-0.113 0.114-0.178 0.066-0.178 0.028-0.386-0.114-0.529l-2.293-2.293c-0.143-0.143-0.351-0.181-0.529-0.114-0.065 0.024-0.126 0.062-0.178 0.114 0 0-0 0-0 0l-4.854 4.854-4.854-4.854c-0-0-0-0-0-0-0.052-0.052-0.113-0.090-0.178-0.114-0.178-0.066-0.386-0.029-0.529 0.114l-2.293 2.293c-0.143 0.143-0.181 0.351-0.114 0.529 0.024 0.065 0.062 0.126 0.114 0.178 0 0 0 0 0 0l4.854 4.854-4.854 4.854c-0 0-0 0-0 0-0.052 0.052-0.090 0.113-0.114 0.178-0.066 0.178-0.029 0.386 0.114 0.529l2.293 2.293c0.143 0.143 0.351 0.181 0.529 0.114 0.065-0.024 0.126-0.062 0.178-0.114 0-0 0-0 0-0l4.854-4.854 4.854 4.854c0 0 0 0 0 0 0.052 0.052 0.113 0.090 0.178 0.114 0.178 0.066 0.386 0.029 0.529-0.114l2.293-2.293c0.143-0.143 0.181-0.351 0.114-0.529-0.024-0.065-0.062-0.126-0.114-0.178z"></path></symbol>
<symbol id='icon-css' viewBox='0 0 16 16'><path d="M2.381 0.758l-0.537 2.686h10.934l-0.342 1.735h-10.94l-0.53 2.686h10.933l-0.61 3.063-4.406 1.46-3.819-1.46 0.261-1.329h-2.686l-0.639 3.224 6.316 2.417 7.281-2.417 2.403-12.066z"></path></symbol>
<symbol id='icon-ed' viewBox='0 0 16 16'><path d="M0.241 7.103c0.469-3.7 2.994-7.056 7.519-7.103 2.731 0.053 4.978 1.291 6.316 3.65 0.672 1.231 0.881 2.525 0.925 3.953v1.678h-10.041c0.047 4.141 6.094 4 8.697 2.175v3.372c-1.525 0.916-4.984 1.734-7.662 0.681-2.281-0.856-3.906-3.244-3.897-5.541-0.075-2.978 1.481-4.95 3.897-6.072-0.513 0.634-0.903 1.334-1.106 2.547h5.669c0 0 0.331-3.388-3.209-3.388-3.338 0.116-5.744 2.056-7.106 4.047v0z"></path></symbol>
<symbol id='icon-fx' viewBox='0 0 16 16'><path d="M15.977 5.221l-0.185 1.189c0 0-0.265-2.201-0.59-3.024-0.498-1.261-0.719-1.251-0.72-1.249 0.333 0.847 0.273 1.302 0.273 1.302s-0.591-1.609-2.152-2.121c-1.729-0.567-2.665-0.412-2.773-0.383-0.016-0-0.032-0-0.047-0 0.013 0.001 0.025 0.002 0.038 0.003-0.001 0-0.001 0.001-0.001 0.001 0.007 0.009 1.911 0.333 2.249 0.797 0 0-0.809 0-1.614 0.232-0.036 0.010 2.961 0.374 3.574 3.37 0 0-0.329-0.686-0.735-0.802 0.267 0.813 0.199 2.356-0.056 3.123-0.033 0.099-0.066-0.426-0.568-0.652 0.161 1.151-0.010 2.976-0.808 3.479-0.062 0.039 0.5-1.802 0.113-1.090-2.23 3.419-4.866 1.578-6.051 0.767 0.607 0.132 1.76-0.021 2.271-0.4 0.001-0 0.001-0.001 0.002-0.001 0.554-0.379 0.882-0.656 1.177-0.59s0.491-0.23 0.262-0.493c-0.229-0.263-0.786-0.625-1.539-0.428-0.531 0.139-1.19 0.727-2.194 0.132-0.771-0.457-0.844-0.837-0.851-1.1 0.019-0.093 0.043-0.18 0.072-0.26 0.089-0.248 0.358-0.323 0.508-0.382 0.254 0.044 0.473 0.123 0.703 0.241 0.003-0.076 0.004-0.178-0-0.293 0.022-0.044 0.008-0.176-0.027-0.337-0.020-0.161-0.053-0.328-0.106-0.48 0-0 0-0 0-0s0.002-0.001 0.002-0.001c0.001-0.001 0.002-0.002 0.003-0.003s0-0.001 0.001-0.001c0.001-0.002 0.002-0.004 0.003-0.007 0.016-0.072 0.188-0.211 0.402-0.361 0.192-0.134 0.417-0.277 0.595-0.387 0.157-0.098 0.277-0.17 0.302-0.189 0.010-0.007 0.021-0.016 0.034-0.026 0.002-0.002 0.005-0.004 0.007-0.006s0.003-0.002 0.004-0.004c0.085-0.067 0.211-0.194 0.237-0.462 0-0.001 0-0.001 0-0.002 0.001-0.008 0.001-0.016 0.002-0.024 0-0.006 0.001-0.011 0.001-0.017 0-0.004 0-0.009 0.001-0.013 0-0.011 0.001-0.021 0.001-0.032 0-0.001 0-0.001 0-0.002 0-0.026-0-0.053-0.002-0.081-0.001-0.016-0.002-0.030-0.005-0.043-0-0.001-0-0.001-0-0.002s-0.001-0.003-0.001-0.004-0.001-0.005-0.002-0.007c-0-0-0-0-0-0.001-0.001-0.003-0.002-0.005-0.003-0.007-0-0-0-0-0-0-0.027-0.064-0.13-0.088-0.554-0.096-0-0-0.001-0-0.001-0v0c-0.173-0.003-0.399-0.003-0.695-0.002-0.52 0.002-0.807-0.508-0.898-0.705 0.126-0.695 0.489-1.19 1.085-1.525 0.011-0.006 0.009-0.012-0.004-0.015 0.117-0.071-1.41-0.002-2.112 0.891-0.623-0.155-1.166-0.144-1.635-0.035-0.090-0.003-0.202-0.014-0.335-0.041-0.311-0.282-0.757-0.803-0.781-1.425 0 0-0.001 0.001-0.004 0.003-0-0.006-0.001-0.012-0.001-0.018 0 0-0.949 0.729-0.807 2.717-0 0.032-0.001 0.062-0.002 0.092-0.257 0.348-0.384 0.641-0.394 0.706-0.228 0.463-0.458 1.16-0.646 2.218 0 0 0.131-0.417 0.395-0.889-0.194 0.594-0.346 1.518-0.257 2.904 0 0 0.024-0.307 0.107-0.75 0.065 0.86 0.352 1.921 1.076 3.169 1.39 2.396 3.526 3.605 5.887 3.791 0.419 0.035 0.845 0.035 1.272 0.003 0.039-0.003 0.079-0.006 0.118-0.009 0.484-0.034 0.971-0.107 1.457-0.224 6.643-1.606 5.921-9.628 5.921-9.628z"></path></symbol>
<symbol id='icon-github' viewBox='0 0 16 16'><path d="M8 0.198c-4.418 0-8 3.582-8 8 0 3.535 2.292 6.533 5.471 7.591 0.4 0.074 0.547-0.174 0.547-0.385 0-0.191-0.008-0.821-0.011-1.489-2.226 0.484-2.695-0.944-2.695-0.944-0.364-0.925-0.888-1.171-0.888-1.171-0.726-0.497 0.055-0.486 0.055-0.486 0.803 0.056 1.226 0.824 1.226 0.824 0.714 1.223 1.872 0.869 2.328 0.665 0.072-0.517 0.279-0.87 0.508-1.070-1.777-0.202-3.645-0.888-3.645-3.954 0-0.873 0.313-1.587 0.824-2.147-0.083-0.202-0.357-1.015 0.077-2.117 0 0 0.672-0.215 2.201 0.82 0.638-0.177 1.322-0.266 2.002-0.269 0.68 0.003 1.365 0.092 2.004 0.269 1.527-1.035 2.198-0.82 2.198-0.82 0.435 1.102 0.162 1.916 0.079 2.117 0.513 0.56 0.823 1.274 0.823 2.147 0 3.073-1.872 3.749-3.653 3.947 0.287 0.248 0.543 0.735 0.543 1.481 0 1.070-0.009 1.932-0.009 2.195 0 0.213 0.144 0.462 0.55 0.384 3.177-1.059 5.466-4.057 5.466-7.59 0-4.418-3.582-8-8-8z"></path></symbol>
<symbol id='icon-html' viewBox='0 0 16 16'><path d="M0.946 0l1.284 14.4 5.762 1.6 5.777-1.602 1.286-14.398h-14.108zM12.26 4.71h-6.758l0.161 1.809h6.437l-0.485 5.422-3.623 1.004-3.618-1.004-0.247-2.774h1.773l0.126 1.41 1.967 0.53 0.004-0.001 1.968-0.531 0.204-2.29h-6.121l-0.476-5.341h8.847l-0.158 1.766z"></path></symbol>
<symbol id='icon-ie' viewBox='0 0 16 16'><path d="M11.472 9.825h3.688c0.028-0.256 0.040-0.517 0.040-0.784 0-1.253-0.336-2.429-0.924-3.442 0.607-1.614 0.586-2.984-0.227-3.803-0.773-0.77-2.848-0.645-5.194 0.394-0.174-0.013-0.349-0.020-0.526-0.020-3.22 0-5.921 2.216-6.667 5.201 1.010-1.293 2.072-2.231 3.492-2.913-0.129 0.121-0.882 0.87-1.009 0.996-3.743 3.742-4.923 8.63-3.653 9.9 0.965 0.965 2.715 0.802 4.725-0.182 0.934 0.476 1.992 0.744 3.113 0.744 3.018 0 5.575-1.942 6.501-4.648h-3.717c-0.511 0.943-1.512 1.586-2.66 1.586s-2.148-0.642-2.66-1.586c-0.227-0.426-0.358-0.915-0.358-1.432v-0.011h6.035zM5.442 8.013c0.085-1.517 1.347-2.728 2.887-2.728s2.802 1.21 2.887 2.728h-5.774zM14.015 2.559c0.524 0.529 0.511 1.503 0.063 2.719-0.768-1.17-1.883-2.093-3.2-2.619 1.408-0.604 2.553-0.684 3.137-0.1zM1.461 15.113c-0.668-0.669-0.467-2.072 0.394-3.763 0.536 1.504 1.581 2.767 2.927 3.581-1.491 0.677-2.712 0.792-3.321 0.182z"></path></symbol>
<symbol id='icon-magic-wand' viewBox='0 0 16 16'><path d="M4 3l-2-2h-1v1l2 2zM5 0h1v2h-1zM9 5h2v1h-2zM10 2v-1h-1l-2 2 1 1zM0 5h2v1h-2zM5 9h1v2h-1zM1 9v1h1l2-2-1-1zM15.781 13.781l-9.939-9.939c-0.292-0.292-0.769-0.292-1.061 0l-0.939 0.939c-0.292 0.292-0.292 0.769 0 1.061l9.939 9.939c0.292 0.292 0.769 0.292 1.061 0l0.939-0.939c0.292-0.292 0.292-0.769 0-1.061zM7.5 8.5l-3-3 1-1 3 3-1 1z"></path></symbol>
<symbol id='icon-om' viewBox='0 0 16 16'><path d="M16 8v0 0c0 2.369-1.031 4.5-2.669 5.963-2.053 1-3.966 0.3-4.597-0.137 2.016-0.441 3.537-2.878 3.537-5.825s-1.522-5.384-3.537-5.828c0.634-0.438 2.547-1.137 4.597-0.138 1.637 1.466 2.669 3.597 2.669 5.966v0 0z"></path>
<path d="M5.366 3.491c-0.884 1.044-1.456 2.587-1.494 4.322 0 0.003 0 0.372 0 0.378 0.038 1.731 0.613 3.275 1.497 4.319 1.147 1.491 2.853 2.434 4.759 2.434 1.172 0 2.269-0.356 3.206-0.978-1.419 1.266-3.287 2.034-5.334 2.034-0.128 0-0.256-0.003-0.381-0.009-4.241-0.2-7.619-3.7-7.619-7.991 0-4.419 3.581-8 8-8 0.009 0 0.019 0 0.031 0 2.037 0.006 3.894 0.775 5.303 2.038-0.938-0.622-2.034-0.981-3.206-0.981-1.906 0-3.612 0.944-4.763 2.434z"></path></symbol>
<symbol id='icon-op' viewBox='0 0 16 16'><path d="M16 8v0 0c0 2.369-1.031 4.5-2.669 5.963-2.053 1-3.966 0.3-4.597-0.137 2.016-0.441 3.537-2.878 3.537-5.825s-1.522-5.384-3.537-5.828c0.634-0.438 2.547-1.137 4.597-0.138 1.637 1.466 2.669 3.597 2.669 5.966v0 0z"></path>
<path d="M5.366 3.491c-0.884 1.044-1.456 2.587-1.494 4.322 0 0.003 0 0.372 0 0.378 0.038 1.731 0.613 3.275 1.497 4.319 1.147 1.491 2.853 2.434 4.759 2.434 1.172 0 2.269-0.356 3.206-0.978-1.419 1.266-3.287 2.034-5.334 2.034-0.128 0-0.256-0.003-0.381-0.009-4.241-0.2-7.619-3.7-7.619-7.991 0-4.419 3.581-8 8-8 0.009 0 0.019 0 0.031 0 2.037 0.006 3.894 0.775 5.303 2.038-0.938-0.622-2.034-0.981-3.206-0.981-1.906 0-3.612 0.944-4.763 2.434z"></path></symbol>
<symbol id='icon-sa' viewBox='0 0 16 16'><path d="M8 0c-4.419 0-8 3.581-8 8s3.581 8 8 8 8-3.581 8-8-3.581-8-8-8zM14.975 7.388l-0.016-0.166c0.003 0.056 0.009 0.109 0.016 0.166zM13.881 4.2l-0.113-0.169c0.037 0.056 0.075 0.112 0.113 0.169zM13.447 3.603l-0.069-0.084c0.025 0.028 0.047 0.056 0.069 0.084zM12.478 2.619l-0.084-0.069c0.031 0.025 0.056 0.047 0.084 0.069zM11.969 2.231l-0.169-0.112c0.056 0.038 0.113 0.075 0.169 0.112zM8.778 1.044l-0.169-0.016c0.056 0.003 0.113 0.009 0.169 0.016zM7.388 1.025l-0.169 0.016c0.056-0.003 0.112-0.009 0.169-0.016zM4.2 2.119l-0.169 0.112c0.056-0.038 0.112-0.075 0.169-0.112zM3.603 2.553l-0.081 0.066c0.028-0.022 0.053-0.044 0.081-0.066zM2.619 3.522l-0.069 0.084c0.025-0.028 0.047-0.056 0.069-0.084zM2.231 4.031l-0.112 0.169c0.038-0.056 0.075-0.112 0.112-0.169zM1.044 7.222l-0.016 0.169c0.003-0.056 0.009-0.112 0.016-0.169zM1.025 8.613l0.016 0.169c-0.003-0.056-0.009-0.113-0.016-0.169zM2.119 11.797l0.112 0.169c-0.038-0.053-0.075-0.109-0.112-0.169zM2.25 11.994l1.247-0.834-0.138-0.209-1.247 0.834c-0.566-0.878-0.938-1.887-1.063-2.975l0.747-0.075-0.025-0.25-0.747 0.075c-0.012-0.144-0.019-0.291-0.022-0.438h1.5v-0.25h-1.5c0.003-0.147 0.009-0.291 0.022-0.438l0.747 0.072 0.025-0.25-0.747-0.072c0.125-1.088 0.5-2.097 1.066-2.975l1.247 0.834 0.138-0.209-1.25-0.828c0.084-0.119 0.169-0.237 0.259-0.35l0.578 0.475 0.159-0.194-0.578-0.475c0.094-0.112 0.194-0.219 0.294-0.325l1.059 1.059 0.178-0.178-1.059-1.059c0.106-0.1 0.212-0.2 0.322-0.294l0.475 0.581 0.194-0.159-0.475-0.578c0.116-0.091 0.231-0.178 0.35-0.263l0.834 1.247 0.209-0.138-0.834-1.247c0.878-0.566 1.888-0.938 2.975-1.063l0.075 0.747 0.25-0.025-0.075-0.747c0.144-0.012 0.291-0.019 0.438-0.022v1.5h0.25v-1.5c0.147 0.003 0.291 0.009 0.438 0.022l-0.072 0.747 0.25 0.025 0.072-0.747c1.088 0.125 2.097 0.5 2.975 1.066l-0.834 1.247 0.209 0.138 0.834-1.247c0.119 0.084 0.238 0.169 0.35 0.259l-0.475 0.578 0.194 0.159 0.475-0.578c0.113 0.094 0.219 0.194 0.325 0.294l-0.4 0.391-5.469 3.647-3.647 5.469-0.391 0.391c-0.1-0.106-0.2-0.213-0.294-0.322l0.578-0.475-0.159-0.194-0.578 0.475c-0.091-0.113-0.175-0.231-0.259-0.35zM2.619 12.478c-0.022-0.028-0.044-0.053-0.066-0.081l0.066 0.081zM3.522 13.381l0.081 0.066c-0.028-0.022-0.053-0.044-0.081-0.066zM4.031 13.766l0.169 0.113c-0.056-0.034-0.112-0.072-0.169-0.113zM7.222 14.956l0.169 0.016c-0.056-0.003-0.112-0.009-0.169-0.016zM8.613 14.975l0.166-0.016c-0.056 0.003-0.109 0.009-0.166 0.016zM11.8 13.881l0.169-0.113c-0.056 0.037-0.113 0.075-0.169 0.113zM12.397 13.447l0.084-0.069c-0.028 0.025-0.056 0.047-0.084 0.069zM12.944 12.956l0.012-0.012c-0.003 0.003-0.009 0.009-0.012 0.012zM13.381 12.478l0.069-0.084c-0.025 0.028-0.047 0.056-0.069 0.084zM13.491 12.344l-0.578-0.475-0.159 0.194 0.578 0.475c-0.094 0.113-0.194 0.219-0.294 0.325l-1.059-1.059-0.178 0.178 1.059 1.059c-0.106 0.1-0.213 0.2-0.322 0.294l-0.475-0.581-0.194 0.159 0.475 0.578c-0.116 0.091-0.231 0.178-0.35 0.262l-0.834-1.247-0.209 0.137 0.834 1.247c-0.878 0.566-1.887 0.938-2.975 1.063l-0.075-0.747-0.25 0.025 0.075 0.747c-0.144 0.012-0.291 0.019-0.438 0.022v-1.5h-0.25v1.5c-0.147-0.003-0.291-0.009-0.438-0.022l0.072-0.747-0.25-0.025-0.072 0.747c-1.088-0.125-2.097-0.5-2.975-1.066l0.834-1.247-0.209-0.137-0.828 1.247c-0.119-0.084-0.237-0.169-0.35-0.259l0.475-0.578-0.194-0.159-0.475 0.578c-0.112-0.094-0.219-0.194-0.325-0.294l0.394-0.391 5.469-3.647 3.647-5.469 0.391-0.391c0.1 0.106 0.2 0.212 0.294 0.322l-0.578 0.475 0.159 0.194 0.578-0.475c0.091 0.116 0.178 0.231 0.262 0.35l-1.247 0.834 0.137 0.209 1.247-0.834c0.566 0.878 0.938 1.888 1.063 2.975l-0.747 0.075 0.025 0.25 0.747-0.075c0.012 0.144 0.019 0.291 0.022 0.438h-1.5v0.25h1.5c-0.003 0.147-0.009 0.291-0.022 0.438l-0.747-0.072-0.025 0.25 0.747 0.072c-0.125 1.088-0.5 2.097-1.066 2.975l-1.247-0.834-0.137 0.209 1.247 0.834c-0.081 0.113-0.169 0.228-0.259 0.344zM14.975 8.609c-0.006 0.056-0.009 0.113-0.016 0.169l0.016-0.169zM13.881 11.8c-0.037 0.056-0.075 0.113-0.113 0.169l0.113-0.169z"></path>
<path d="M6.758 1.111l0.293 1.471-0.245 0.049-0.293-1.471 0.245-0.049z"></path>
<path d="M9.245 14.89l-0.293-1.471 0.245-0.049 0.293 1.471-0.245 0.049z"></path>
<path d="M6.088 1.264l0.218 0.718-0.239 0.073-0.218-0.718 0.239-0.073z"></path>
<path d="M9.913 14.733l-0.218-0.718 0.239-0.073 0.218 0.718-0.239 0.073z"></path>
<path d="M5.438 1.486l0.574 1.386-0.231 0.096-0.574-1.386 0.231-0.096z"></path>
<path d="M10.564 14.515l-0.574-1.386 0.231-0.096 0.574 1.386-0.231 0.096z"></path>
<path d="M4.588 1.885l0.22-0.118 0.354 0.661-0.22 0.118-0.354-0.661z"></path>
<path d="M11.408 14.114l-0.22 0.118-0.354-0.661 0.22-0.118 0.354 0.661z"></path>
<path d="M1.884 4.591l0.662 0.353-0.118 0.221-0.661-0.353 0.118-0.221z"></path>
<path d="M14.113 11.409l-0.662-0.353 0.118-0.22 0.662 0.353-0.118 0.22z"></path>
<path d="M2.872 6.010l-1.386-0.574 0.096-0.231 1.386 0.574-0.096 0.231z"></path>
<path d="M13.13 9.989l1.386 0.574-0.096 0.231-1.386-0.574 0.096-0.231z"></path>
<path d="M1.337 5.85l0.718 0.218-0.073 0.239-0.718-0.218 0.073-0.239z"></path>
<path d="M14.661 10.151l-0.718-0.218 0.073-0.239 0.718 0.218-0.073 0.239z"></path>
<path d="M1.157 6.512l1.471 0.293-0.049 0.245-1.471-0.293 0.049-0.245z"></path>
<path d="M14.84 9.488l-1.471-0.293 0.049-0.245 1.471 0.293-0.049 0.245z"></path>
<path d="M1.109 9.243l1.471-0.293 0.049 0.245-1.471 0.293-0.049-0.245z"></path>
<path d="M14.888 6.757l-1.471 0.293-0.049-0.245 1.471-0.293 0.049 0.245z"></path>
<path d="M1.265 9.914l0.718-0.218 0.073 0.239-0.718 0.218-0.073-0.239z"></path>
<path d="M14.734 6.089l-0.718 0.218-0.073-0.239 0.718-0.218 0.073 0.239z"></path>
<path d="M1.58 10.796l-0.096-0.231 1.386-0.574 0.096 0.231-1.386 0.574z"></path>
<path d="M14.419 5.207l0.096 0.231-1.386 0.574-0.096-0.231 1.386-0.574z"></path>
<path d="M1.888 11.41l-0.118-0.22 0.661-0.354 0.118 0.22-0.661 0.354z"></path>
<path d="M14.116 4.59l0.118 0.22-0.661 0.354-0.118-0.22 0.661-0.354z"></path>
<path d="M4.811 14.232l-0.22-0.118 0.354-0.661 0.22 0.118-0.354 0.661z"></path>
<path d="M11.189 1.767l0.22 0.118-0.353 0.661-0.22-0.118 0.353-0.661z"></path>
<path d="M5.207 14.419l0.574-1.386 0.231 0.096-0.574 1.386-0.231-0.096z"></path>
<path d="M10.795 1.58l-0.574 1.386-0.231-0.096 0.574-1.386 0.231 0.096z"></path>
<path d="M6.088 14.735l-0.239-0.073 0.218-0.718 0.239 0.073-0.218 0.718z"></path>
<path d="M9.912 1.264l0.239 0.073-0.218 0.718-0.239-0.073 0.218-0.718z"></path>
<path d="M6.757 14.888l-0.245-0.049 0.293-1.471 0.245 0.049-0.293 1.471z"></path>
<path d="M9.243 1.109l0.245 0.049-0.293 1.471-0.245-0.049 0.293-1.471z"></path></symbol>
<symbol id='icon-twitter' viewBox='0 0 16 16'><path d="M16 3.538c-0.588 0.263-1.222 0.438-1.884 0.516 0.678-0.406 1.197-1.050 1.444-1.816-0.634 0.375-1.338 0.65-2.084 0.797-0.6-0.638-1.453-1.034-2.397-1.034-1.813 0-3.281 1.469-3.281 3.281 0 0.256 0.028 0.506 0.084 0.747-2.728-0.138-5.147-1.444-6.766-3.431-0.281 0.484-0.444 1.050-0.444 1.65 0 1.138 0.578 2.144 1.459 2.731-0.538-0.016-1.044-0.166-1.488-0.409 0 0.013 0 0.028 0 0.041 0 1.591 1.131 2.919 2.634 3.219-0.275 0.075-0.566 0.116-0.866 0.116-0.212 0-0.416-0.022-0.619-0.059 0.419 1.303 1.631 2.253 3.066 2.281-1.125 0.881-2.538 1.406-4.078 1.406-0.266 0-0.525-0.016-0.784-0.047 1.456 0.934 3.181 1.475 5.034 1.475 6.037 0 9.341-5.003 9.341-9.341 0-0.144-0.003-0.284-0.009-0.425 0.641-0.459 1.197-1.038 1.637-1.697z"></path></symbol>
<symbol id='icon-windows' viewBox='0 0 16 16'><path d="M6.441 7.999c-0.745-0.383-1.47-0.577-2.154-0.577-0.093 0-0.187 0.003-0.28 0.011-0.873 0.072-1.671 0.303-2.184 0.482-0.136 0.050-0.276 0.103-0.419 0.161l-1.403 4.866c0.964-0.357 1.817-0.53 2.598-0.53 1.263 0 2.18 0.472 2.937 0.958 0.359-1.217 1.219-4.158 1.476-5.036-0.187-0.114-0.376-0.228-0.571-0.333zM8.255 9.235l-1.413 4.909c0.419 0.24 1.83 1.001 2.91 1.001 0.872 0 1.848-0.223 2.982-0.684l1.349-4.718c-0.916 0.296-1.795 0.446-2.617 0.446-1.499 0-2.549-0.486-3.211-0.952zM4.575 5.762c1.205 0.012 2.096 0.472 2.835 0.945l1.449-4.958c-0.305-0.175-1.106-0.611-1.685-0.759-0.381-0.089-0.782-0.135-1.206-0.135-0.809 0.015-1.694 0.218-2.701 0.622l-1.382 4.853c1.013-0.382 1.885-0.568 2.689-0.568 0.001 0 0.002 0 0.002 0zM16 3.096c-0.919 0.357-1.816 0.539-2.672 0.539-1.433 0-2.489-0.497-3.173-0.974l-1.437 4.972c0.965 0.62 2.005 0.936 3.096 0.936 0.89 0 1.812-0.214 2.742-0.636l-0.003-0.035 0.058-0.014 1.39-4.788z"></path></symbol>
<symbol id='icon-windows8' viewBox='0 0 16 16'><path d="M0.005 8l-0.005-4.876 6-0.815v5.691zM7 2.164l7.998-1.164v7h-7.998zM15 9l-0.002 7-7.998-1.125v-5.875zM6 14.747l-5.995-0.822-0-4.926h5.995z"></path></symbol>
</svg>
